<svg width="20" height="20" viewBox="0 0 20 20" fill="none" xmlns="http://www.w3.org/2000/svg">
<path d="M10.0999 10.0003C8.8166 10.0003 7.71799 9.54338 6.8041 8.62949C5.89021 7.7156 5.43327 6.61699 5.43327 5.33366C5.43327 4.05033 5.89021 2.95171 6.8041 2.03783C7.71799 1.12394 8.8166 0.666992 10.0999 0.666992C11.3833 0.666992 12.4819 1.12394 13.3958 2.03783C14.3097 2.95171 14.7666 4.05033 14.7666 5.33366C14.7666 6.61699 14.3097 7.7156 13.3958 8.62949C12.4819 9.54338 11.3833 10.0003 10.0999 10.0003ZM0.766602 17.0003V16.067C0.766602 15.4059 0.93674 14.7982 1.27702 14.2441C1.6173 13.6899 2.06938 13.267 2.63327 12.9753C3.83882 12.3725 5.06382 11.9205 6.30827 11.6191C7.55271 11.3177 8.8166 11.167 10.0999 11.167C11.3833 11.167 12.6472 11.3177 13.8916 11.6191C15.136 11.9205 16.361 12.3725 17.5666 12.9753C18.1305 13.267 18.5826 13.6899 18.9229 14.2441C19.2631 14.7982 19.4333 15.4059 19.4333 16.067V17.0003C19.4333 17.642 19.2048 18.1913 18.7479 18.6482C18.2909 19.1052 17.7416 19.3337 17.0999 19.3337H3.09993C2.45827 19.3337 1.90896 19.1052 1.45202 18.6482C0.995074 18.1913 0.766602 17.642 0.766602 17.0003Z"/>
</svg>
