<svg width="12" height="12" viewBox="0 0 12 12" fill="none" xmlns="http://www.w3.org/2000/svg">
<path d="M5.1665 6.83366H0.999837C0.763726 6.83366 0.565809 6.7538 0.406087 6.59408C0.246365 6.43435 0.166504 6.23644 0.166504 6.00033C0.166504 5.76421 0.246365 5.5663 0.406087 5.40658C0.565809 5.24685 0.763726 5.16699 0.999837 5.16699H5.1665V1.00033C5.1665 0.764214 5.24637 0.566298 5.40609 0.406576C5.56581 0.246853 5.76373 0.166992 5.99984 0.166992C6.23595 0.166992 6.43387 0.246853 6.59359 0.406576C6.75331 0.566298 6.83317 0.764214 6.83317 1.00033V5.16699H10.9998C11.2359 5.16699 11.4339 5.24685 11.5936 5.40658C11.7533 5.5663 11.8332 5.76421 11.8332 6.00033C11.8332 6.23644 11.7533 6.43435 11.5936 6.59408C11.4339 6.7538 11.2359 6.83366 10.9998 6.83366H6.83317V11.0003C6.83317 11.2364 6.75331 11.4344 6.59359 11.5941C6.43387 11.7538 6.23595 11.8337 5.99984 11.8337C5.76373 11.8337 5.56581 11.7538 5.40609 11.5941C5.24637 11.4344 5.1665 11.2364 5.1665 11.0003V6.83366Z" fill="#39B269"/>
</svg>
