<svg width="20" height="20" viewBox="0 0 20 20" fill="none" xmlns="http://www.w3.org/2000/svg">
<path d="M10.0002 19.1663C8.73627 19.1663 7.5453 18.9268 6.42725 18.4476C5.30919 17.9684 4.33697 17.3156 3.51058 16.4893C2.68419 15.6629 2.03141 14.6906 1.55225 13.5726C1.07308 12.4545 0.833496 11.2636 0.833496 9.99967C0.833496 8.7219 1.07308 7.52745 1.55225 6.41634C2.03141 5.30523 2.68419 4.33648 3.51058 3.51009C4.33697 2.6837 5.30919 2.03092 6.42725 1.55176C7.5453 1.07259 8.73627 0.833008 10.0002 0.833008C11.2779 0.833008 12.4724 1.07259 13.5835 1.55176C14.6946 2.03092 15.6634 2.6837 16.4897 3.51009C17.3161 4.33648 17.9689 5.30523 18.4481 6.41634C18.9272 7.52745 19.1668 8.7219 19.1668 9.99967C19.1668 11.2636 18.9272 12.4545 18.4481 13.5726C17.9689 14.6906 17.3161 15.6629 16.4897 16.4893C15.6634 17.3156 14.6946 17.9684 13.5835 18.4476C12.4724 18.9268 11.2779 19.1663 10.0002 19.1663ZM9.47933 16.4788C9.61822 16.6177 9.77794 16.6872 9.9585 16.6872C10.1391 16.6872 10.2988 16.6177 10.4377 16.4788L16.4377 10.4788C16.5766 10.34 16.646 10.1733 16.646 9.97884C16.646 9.7844 16.5766 9.61773 16.4377 9.47884L10.4377 3.47884C10.2988 3.33995 10.1391 3.27051 9.9585 3.27051C9.77794 3.27051 9.61822 3.33995 9.47933 3.47884L3.47933 9.47884C3.34044 9.61773 3.271 9.7844 3.271 9.97884C3.271 10.1733 3.34044 10.34 3.47933 10.4788L9.47933 16.4788ZM8.31266 9.97884V11.6455C8.31266 11.8816 8.2328 12.0795 8.07308 12.2393C7.91336 12.399 7.71544 12.4788 7.47933 12.4788C7.24322 12.4788 7.0453 12.399 6.88558 12.2393C6.72586 12.0795 6.646 11.8816 6.646 11.6455V9.14551C6.646 8.89551 6.72239 8.69412 6.87516 8.54134C7.02794 8.38856 7.22933 8.31218 7.47933 8.31218H10.9377L10.6252 7.97884C10.4724 7.81217 10.396 7.61773 10.396 7.39551C10.396 7.17329 10.4793 6.97884 10.646 6.81217C10.7988 6.6594 10.9932 6.58301 11.2293 6.58301C11.4654 6.58301 11.6599 6.6594 11.8127 6.81217L13.5627 8.56218C13.7293 8.72884 13.8127 8.92329 13.8127 9.14551C13.8127 9.36773 13.7293 9.56217 13.5627 9.72884L11.8127 11.4788C11.6599 11.6316 11.4654 11.708 11.2293 11.708C10.9932 11.708 10.7918 11.6247 10.6252 11.458C10.4724 11.3052 10.396 11.1177 10.396 10.8955C10.396 10.6733 10.4724 10.4788 10.6252 10.3122L10.9377 9.97884H8.31266Z" fill="#39B269"/>
</svg>
