<svg width="17" height="18" viewBox="0 0 17 18" fill="none" xmlns="http://www.w3.org/2000/svg">
<path d="M12.1667 14.8337H10.5C10.2639 14.8337 10.066 14.7538 9.90625 14.5941C9.74653 14.4344 9.66667 14.2364 9.66667 14.0003C9.66667 13.7642 9.74653 13.5663 9.90625 13.4066C10.066 13.2469 10.2639 13.167 10.5 13.167H12.1667V11.5003C12.1667 11.2642 12.2465 11.0663 12.4062 10.9066C12.566 10.7469 12.7639 10.667 13 10.667C13.2361 10.667 13.434 10.7469 13.5938 10.9066C13.7535 11.0663 13.8333 11.2642 13.8333 11.5003V13.167H15.5C15.7361 13.167 15.934 13.2469 16.0937 13.4066C16.2535 13.5663 16.3333 13.7642 16.3333 14.0003C16.3333 14.2364 16.2535 14.4344 16.0937 14.5941C15.934 14.7538 15.7361 14.8337 15.5 14.8337H13.8333V16.5003C13.8333 16.7364 13.7535 16.9344 13.5938 17.0941C13.434 17.2538 13.2361 17.3337 13 17.3337C12.7639 17.3337 12.566 17.2538 12.4062 17.0941C12.2465 16.9344 12.1667 16.7364 12.1667 16.5003V14.8337ZM2.16667 15.667C1.70833 15.667 1.31597 15.5038 0.989583 15.1774C0.663194 14.851 0.5 14.4587 0.5 14.0003V4.00033C0.5 3.54199 0.663194 3.14963 0.989583 2.82324C1.31597 2.49685 1.70833 2.33366 2.16667 2.33366H3V1.50033C3 1.26421 3.07986 1.0663 3.23958 0.906576C3.39931 0.746853 3.59722 0.666992 3.83333 0.666992C4.06944 0.666992 4.26736 0.746853 4.42708 0.906576C4.58681 1.0663 4.66667 1.26421 4.66667 1.50033V2.33366H9.66667V1.50033C9.66667 1.26421 9.74653 1.0663 9.90625 0.906576C10.066 0.746853 10.2639 0.666992 10.5 0.666992C10.7361 0.666992 10.934 0.746853 11.0938 0.906576C11.2535 1.0663 11.3333 1.26421 11.3333 1.50033V2.33366H12.1667C12.625 2.33366 13.0174 2.49685 13.3438 2.82324C13.6701 3.14963 13.8333 3.54199 13.8333 4.00033V8.16699C13.8333 8.4031 13.7535 8.60102 13.5938 8.76074C13.434 8.92046 13.2361 9.00033 13 9.00033C12.7639 9.00033 12.566 8.92046 12.4062 8.76074C12.2465 8.60102 12.1667 8.4031 12.1667 8.16699V7.33366H2.16667V14.0003H7.16667C7.40278 14.0003 7.60069 14.0802 7.76042 14.2399C7.92014 14.3996 8 14.5975 8 14.8337C8 15.0698 7.92014 15.2677 7.76042 15.4274C7.60069 15.5871 7.40278 15.667 7.16667 15.667H2.16667Z" fill="#39B269"/>
</svg>
