<svg width="21" height="20" viewBox="0 0 21 20" fill="none" xmlns="http://www.w3.org/2000/svg">
<path d="M4.2 17.1988L1.785 19.6711C1.4525 20.0115 1.07187 20.0877 0.643125 19.8996C0.214375 19.7115 0 19.3755 0 18.8918V2.14985C0 1.55864 0.205625 1.05253 0.616875 0.631519C1.02813 0.210506 1.5225 0 2.1 0H18.9C19.4775 0 19.9719 0.210506 20.3831 0.631519C20.7944 1.05253 21 1.55864 21 2.14985V15.049C21 15.6402 20.7944 16.1463 20.3831 16.5673C19.9719 16.9883 19.4775 17.1988 18.9 17.1988H4.2ZM5.25 12.8991H11.55C11.8475 12.8991 12.0969 12.7961 12.2981 12.5901C12.4994 12.384 12.6 12.1287 12.6 11.8242C12.6 11.5196 12.4994 11.2643 12.2981 11.0583C12.0969 10.8523 11.8475 10.7493 11.55 10.7493H5.25C4.9525 10.7493 4.70312 10.8523 4.50187 11.0583C4.30062 11.2643 4.2 11.5196 4.2 11.8242C4.2 12.1287 4.30062 12.384 4.50187 12.5901C4.70312 12.7961 4.9525 12.8991 5.25 12.8991ZM5.25 9.67433H15.75C16.0475 9.67433 16.2969 9.57132 16.4981 9.36529C16.6994 9.15927 16.8 8.90397 16.8 8.59941C16.8 8.29485 16.6994 8.03955 16.4981 7.83352C16.2969 7.6275 16.0475 7.52448 15.75 7.52448H5.25C4.9525 7.52448 4.70312 7.6275 4.50187 7.83352C4.30062 8.03955 4.2 8.29485 4.2 8.59941C4.2 8.90397 4.30062 9.15927 4.50187 9.36529C4.70312 9.57132 4.9525 9.67433 5.25 9.67433ZM5.25 6.44956H15.75C16.0475 6.44956 16.2969 6.34654 16.4981 6.14051C16.6994 5.93449 16.8 5.67919 16.8 5.37463C16.8 5.07007 16.6994 4.81477 16.4981 4.60875C16.2969 4.40272 16.0475 4.2997 15.75 4.2997H5.25C4.9525 4.2997 4.70312 4.40272 4.50187 4.60875C4.30062 4.81477 4.2 5.07007 4.2 5.37463C4.2 5.67919 4.30062 5.93449 4.50187 6.14051C4.70312 6.34654 4.9525 6.44956 5.25 6.44956Z"/>
</svg>
