<svg width="20" height="18" viewBox="0 0 16 14" fill="none" xmlns="http://www.w3.org/2000/svg">
<path d="M7.25241 7.1734L6.28842 6.23052C6.16654 6.10922 6.01418 6.04856 5.83136 6.04856C5.64853 6.04856 5.49063 6.11473 5.35767 6.24706C5.23579 6.36837 5.17485 6.52276 5.17485 6.71023C5.17485 6.8977 5.23579 7.05209 5.35767 7.1734L6.78703 8.59598C6.92 8.72831 7.07512 8.79448 7.25241 8.79448C7.42969 8.79448 7.58482 8.72831 7.71778 8.59598L10.5433 5.7839C10.6762 5.65156 10.7399 5.49717 10.7344 5.32073C10.7289 5.14429 10.6651 4.9899 10.5433 4.85756C10.4103 4.72523 10.2524 4.65631 10.0696 4.65079C9.88676 4.64528 9.72886 4.70869 9.5959 4.84102L7.25241 7.1734ZM5.39091 13.1615L4.42692 11.5404L2.59867 11.1434C2.43246 11.1103 2.2995 11.0248 2.19978 10.887C2.10005 10.7492 2.06127 10.5975 2.08343 10.4321L2.26626 8.5629L1.01972 7.14031C0.908917 7.01901 0.853516 6.87565 0.853516 6.71023C0.853516 6.54481 0.908917 6.40145 1.01972 6.28015L2.26626 4.85756L2.08343 2.98836C2.06127 2.82294 2.10005 2.67131 2.19978 2.53346C2.2995 2.39561 2.43246 2.31015 2.59867 2.27706L4.42692 1.88006L5.39091 0.25898C5.47955 0.115619 5.60144 0.019126 5.75656 -0.030499C5.91169 -0.080124 6.06681 -0.0718532 6.22194 -0.00568653L7.95047 0.722147L9.679 -0.00568653C9.83413 -0.0718532 9.98925 -0.080124 10.1444 -0.030499C10.2995 0.019126 10.4214 0.115619 10.51 0.25898L11.474 1.88006L13.3023 2.27706C13.4685 2.31015 13.6014 2.39561 13.7012 2.53346C13.8009 2.67131 13.8397 2.82294 13.8175 2.98836L13.6347 4.85756L14.8812 6.28015C14.992 6.40145 15.0474 6.54481 15.0474 6.71023C15.0474 6.87565 14.992 7.01901 14.8812 7.14031L13.6347 8.5629L13.8175 10.4321C13.8397 10.5975 13.8009 10.7492 13.7012 10.887C13.6014 11.0248 13.4685 11.1103 13.3023 11.1434L11.474 11.5404L10.51 13.1615C10.4214 13.3048 10.2995 13.4013 10.1444 13.451C9.98925 13.5006 9.83413 13.4923 9.679 13.4261L7.95047 12.6983L6.22194 13.4261C6.06681 13.4923 5.91169 13.5006 5.75656 13.451C5.60144 13.4013 5.47955 13.3048 5.39091 13.1615Z" fill="#39B269"/>
</svg>
