<svg width="18" height="18" viewBox="0 0 18 18" fill="none" xmlns="http://www.w3.org/2000/svg">
<path d="M11 6C10.7167 6 10.4792 5.90417 10.2875 5.7125C10.0958 5.52083 10 5.28333 10 5C10 4.71667 10.0958 4.47917 10.2875 4.2875C10.4792 4.09583 10.7167 4 11 4H13V1C13 0.716667 13.0958 0.479167 13.2875 0.2875C13.4792 0.0958333 13.7167 0 14 0C14.2833 0 14.5208 0.0958333 14.7125 0.2875C14.9042 0.479167 15 0.716667 15 1V4H17C17.2833 4 17.5208 4.09583 17.7125 4.2875C17.9042 4.47917 18 4.71667 18 5C18 5.28333 17.9042 5.52083 17.7125 5.7125C17.5208 5.90417 17.2833 6 17 6H11ZM14 18C13.7167 18 13.4792 17.9042 13.2875 17.7125C13.0958 17.5208 13 17.2833 13 17V9C13 8.71667 13.0958 8.47917 13.2875 8.2875C13.4792 8.09583 13.7167 8 14 8C14.2833 8 14.5208 8.09583 14.7125 8.2875C14.9042 8.47917 15 8.71667 15 9V17C15 17.2833 14.9042 17.5208 14.7125 17.7125C14.5208 17.9042 14.2833 18 14 18ZM4 18C3.71667 18 3.47917 17.9042 3.2875 17.7125C3.09583 17.5208 3 17.2833 3 17V14H1C0.716667 14 0.479167 13.9042 0.2875 13.7125C0.0958333 13.5208 0 13.2833 0 13C0 12.7167 0.0958333 12.4792 0.2875 12.2875C0.479167 12.0958 0.716667 12 1 12H7C7.28333 12 7.52083 12.0958 7.7125 12.2875C7.90417 12.4792 8 12.7167 8 13C8 13.2833 7.90417 13.5208 7.7125 13.7125C7.52083 13.9042 7.28333 14 7 14H5V17C5 17.2833 4.90417 17.5208 4.7125 17.7125C4.52083 17.9042 4.28333 18 4 18ZM4 10C3.71667 10 3.47917 9.90417 3.2875 9.7125C3.09583 9.52083 3 9.28333 3 9V1C3 0.716667 3.09583 0.479167 3.2875 0.2875C3.47917 0.0958333 3.71667 0 4 0C4.28333 0 4.52083 0.0958333 4.7125 0.2875C4.90417 0.479167 5 0.716667 5 1V9C5 9.28333 4.90417 9.52083 4.7125 9.7125C4.52083 9.90417 4.28333 10 4 10Z" fill="#737373"/>
</svg>
