<svg width="19" height="21" viewBox="0 0 19 21" fill="none" xmlns="http://www.w3.org/2000/svg">
<path d="M13.525 17.675L17.075 14.125C17.275 13.925 17.5083 13.8292 17.775 13.8375C18.0417 13.8458 18.275 13.95 18.475 14.15C18.6583 14.35 18.75 14.5833 18.75 14.85C18.75 15.1167 18.6583 15.35 18.475 15.55L14.25 19.8C14.05 20 13.8167 20.1 13.55 20.1C13.2833 20.1 13.05 20 12.85 19.8L10.7 17.65C10.5167 17.4667 10.425 17.2333 10.425 16.95C10.425 16.6667 10.5167 16.4333 10.7 16.25C10.8833 16.0667 11.1167 15.975 11.4 15.975C11.6833 15.975 11.9167 16.0667 12.1 16.25L13.525 17.675ZM6 13.4L5.1 14.3C4.91667 14.4833 4.68333 14.575 4.4 14.575C4.11667 14.575 3.88333 14.4833 3.7 14.3C3.51667 14.1167 3.425 13.8833 3.425 13.6C3.425 13.3167 3.51667 13.0833 3.7 12.9L4.6 12L3.7 11.1C3.51667 10.9167 3.425 10.6833 3.425 10.4C3.425 10.1167 3.51667 9.88333 3.7 9.7C3.88333 9.51667 4.11667 9.425 4.4 9.425C4.68333 9.425 4.91667 9.51667 5.1 9.7L6 10.6L6.9 9.7C7.08333 9.51667 7.31667 9.425 7.6 9.425C7.88333 9.425 8.11667 9.51667 8.3 9.7C8.48333 9.88333 8.575 10.1167 8.575 10.4C8.575 10.6833 8.48333 10.9167 8.3 11.1L7.4 12L8.3 12.9C8.48333 13.0833 8.575 13.3167 8.575 13.6C8.575 13.8833 8.48333 14.1167 8.3 14.3C8.11667 14.4833 7.88333 14.575 7.6 14.575C7.31667 14.575 7.08333 14.4833 6.9 14.3L6 13.4ZM2 20C1.45 20 0.979167 19.8042 0.5875 19.4125C0.195833 19.0208 0 18.55 0 18V4C0 3.45 0.195833 2.97917 0.5875 2.5875C0.979167 2.19583 1.45 2 2 2H3V1C3 0.716667 3.09583 0.479167 3.2875 0.2875C3.47917 0.0958333 3.71667 0 4 0C4.28333 0 4.52083 0.0958333 4.7125 0.2875C4.90417 0.479167 5 0.716667 5 1V2H13V1C13 0.716667 13.0958 0.479167 13.2875 0.2875C13.4792 0.0958333 13.7167 0 14 0C14.2833 0 14.5208 0.0958333 14.7125 0.2875C14.9042 0.479167 15 0.716667 15 1V2H16C16.55 2 17.0208 2.19583 17.4125 2.5875C17.8042 2.97917 18 3.45 18 4V10.5C18 10.7833 17.9042 11.0167 17.7125 11.2C17.5208 11.3833 17.2833 11.475 17 11.475C16.7167 11.475 16.4792 11.3792 16.2875 11.1875C16.0958 10.9958 16 10.7583 16 10.475V8H2V18H8C8.28333 18 8.52083 18.0958 8.7125 18.2875C8.90417 18.4792 9 18.7167 9 19C9 19.2833 8.90417 19.5208 8.7125 19.7125C8.52083 19.9042 8.28333 20 8 20H2Z" fill="#737373"/>
</svg>
