<svg width="22" height="22" viewBox="0 0 22 22" fill="none" xmlns="http://www.w3.org/2000/svg">
<path d="M2.73324 9.83333C2.09157 9.83333 1.54226 9.60486 1.08532 9.14792C0.628375 8.69097 0.399902 8.14167 0.399902 7.5V2.83333C0.399902 2.19167 0.628375 1.64236 1.08532 1.18542C1.54226 0.728472 2.09157 0.5 2.73324 0.5H7.3999C8.04157 0.5 8.59087 0.728472 9.04782 1.18542C9.50476 1.64236 9.73324 2.19167 9.73324 2.83333V7.5C9.73324 8.14167 9.50476 8.69097 9.04782 9.14792C8.59087 9.60486 8.04157 9.83333 7.3999 9.83333H2.73324ZM2.73324 21.5C2.09157 21.5 1.54226 21.2715 1.08532 20.8146C0.628375 20.3576 0.399902 19.8083 0.399902 19.1667V14.5C0.399902 13.8583 0.628375 13.309 1.08532 12.8521C1.54226 12.3951 2.09157 12.1667 2.73324 12.1667H7.3999C8.04157 12.1667 8.59087 12.3951 9.04782 12.8521C9.50476 13.309 9.73324 13.8583 9.73324 14.5V19.1667C9.73324 19.8083 9.50476 20.3576 9.04782 20.8146C8.59087 21.2715 8.04157 21.5 7.3999 21.5H2.73324ZM14.3999 9.83333C13.7582 9.83333 13.2089 9.60486 12.752 9.14792C12.295 8.69097 12.0666 8.14167 12.0666 7.5V2.83333C12.0666 2.19167 12.295 1.64236 12.752 1.18542C13.2089 0.728472 13.7582 0.5 14.3999 0.5H19.0666C19.7082 0.5 20.2575 0.728472 20.7145 1.18542C21.1714 1.64236 21.3999 2.19167 21.3999 2.83333V7.5C21.3999 8.14167 21.1714 8.69097 20.7145 9.14792C20.2575 9.60486 19.7082 9.83333 19.0666 9.83333H14.3999ZM14.3999 21.5C13.7582 21.5 13.2089 21.2715 12.752 20.8146C12.295 20.3576 12.0666 19.8083 12.0666 19.1667V14.5C12.0666 13.8583 12.295 13.309 12.752 12.8521C13.2089 12.3951 13.7582 12.1667 14.3999 12.1667H19.0666C19.7082 12.1667 20.2575 12.3951 20.7145 12.8521C21.1714 13.309 21.3999 13.8583 21.3999 14.5V19.1667C21.3999 19.8083 21.1714 20.3576 20.7145 20.8146C20.2575 21.2715 19.7082 21.5 19.0666 21.5H14.3999Z"/>
</svg>
