<svg width="16" height="16" viewBox="0 0 14 14" fill="none" xmlns="http://www.w3.org/2000/svg">
<path d="M7 11.4524L3.60692 13.5423C3.45702 13.6398 3.30031 13.6816 3.13679 13.6677C2.97327 13.6537 2.83019 13.598 2.70755 13.5005C2.58491 13.4029 2.48952 13.281 2.42138 13.1347C2.35325 12.9885 2.33962 12.8247 2.3805 12.6436L3.27987 8.6938L0.275157 6.03968C0.138889 5.91429 0.0537212 5.77148 0.0196541 5.61126C-0.014413 5.45104 -0.00419287 5.2943 0.0503145 5.14104C0.104822 4.98779 0.186583 4.8624 0.295597 4.76487C0.404612 4.66734 0.554507 4.60465 0.745283 4.57678L4.71069 4.22151L6.24371 0.501565C6.31184 0.334377 6.41745 0.208986 6.56053 0.125391C6.70362 0.0417971 6.8501 0 7 0C7.1499 0 7.29638 0.0417971 7.43947 0.125391C7.58255 0.208986 7.68816 0.334377 7.75629 0.501565L9.28931 4.22151L13.2547 4.57678C13.4455 4.60465 13.5954 4.66734 13.7044 4.76487C13.8134 4.8624 13.8952 4.98779 13.9497 5.14104C14.0042 5.2943 14.0144 5.45104 13.9803 5.61126C13.9463 5.77148 13.8611 5.91429 13.7248 6.03968L10.7201 8.6938L11.6195 12.6436C11.6604 12.8247 11.6468 12.9885 11.5786 13.1347C11.5105 13.281 11.4151 13.4029 11.2925 13.5005C11.1698 13.598 11.0267 13.6537 10.8632 13.6677C10.6997 13.6816 10.543 13.6398 10.3931 13.5423L7 11.4524Z" fill="#FFCC00"/>
</svg>
