<svg width="18" height="18" viewBox="0 0 18 18" fill="none" xmlns="http://www.w3.org/2000/svg">
<path d="M8.12533 9.5838L6.91699 8.3963C6.76421 8.24352 6.57324 8.16713 6.34408 8.16713C6.11491 8.16713 5.91699 8.25046 5.75033 8.41713C5.59755 8.56991 5.52116 8.76435 5.52116 9.00046C5.52116 9.23658 5.59755 9.43102 5.75033 9.5838L7.54199 11.3755C7.70866 11.5421 7.9031 11.6255 8.12533 11.6255C8.34755 11.6255 8.54199 11.5421 8.70866 11.3755L12.2503 7.8338C12.417 7.66713 12.4969 7.47269 12.4899 7.25046C12.483 7.02824 12.4031 6.8338 12.2503 6.66713C12.0837 6.50046 11.8857 6.41366 11.6566 6.40671C11.4274 6.39977 11.2295 6.47963 11.0628 6.6463L8.12533 9.5838ZM5.79199 17.1255L4.58366 15.0838L2.29199 14.5838C2.08366 14.5421 1.91699 14.4345 1.79199 14.2609C1.66699 14.0873 1.61838 13.8963 1.64616 13.688L1.87533 11.3338L0.312826 9.54213C0.173937 9.38935 0.104492 9.2088 0.104492 9.00046C0.104492 8.79213 0.173937 8.61158 0.312826 8.4588L1.87533 6.66713L1.64616 4.31297C1.61838 4.10463 1.66699 3.91366 1.79199 3.74005C1.91699 3.56644 2.08366 3.4588 2.29199 3.41713L4.58366 2.91713L5.79199 0.875465C5.9031 0.694909 6.05588 0.573382 6.25033 0.510882C6.44477 0.448382 6.63921 0.458798 6.83366 0.542132L9.00033 1.4588L11.167 0.542132C11.3614 0.458798 11.5559 0.448382 11.7503 0.510882C11.9448 0.573382 12.0975 0.694909 12.2087 0.875465L13.417 2.91713L15.7087 3.41713C15.917 3.4588 16.0837 3.56644 16.2087 3.74005C16.3337 3.91366 16.3823 4.10463 16.3545 4.31297L16.1253 6.66713L17.6878 8.4588C17.8267 8.61158 17.8962 8.79213 17.8962 9.00046C17.8962 9.2088 17.8267 9.38935 17.6878 9.54213L16.1253 11.3338L16.3545 13.688C16.3823 13.8963 16.3337 14.0873 16.2087 14.2609C16.0837 14.4345 15.917 14.5421 15.7087 14.5838L13.417 15.0838L12.2087 17.1255C12.0975 17.306 11.9448 17.4275 11.7503 17.49C11.5559 17.5525 11.3614 17.5421 11.167 17.4588L9.00033 16.5421L6.83366 17.4588C6.63921 17.5421 6.44477 17.5525 6.25033 17.49C6.05588 17.4275 5.9031 17.306 5.79199 17.1255Z" fill="#9326FF"/>
</svg>
