<svg width="18" height="15" viewBox="0 0 18 15" fill="none" xmlns="http://www.w3.org/2000/svg">
<path d="M2.33329 14.1663C1.87496 14.1663 1.4826 14.0031 1.15621 13.6768C0.82982 13.3504 0.666626 12.958 0.666626 12.4997V2.49967C0.666626 2.04134 0.82982 1.64898 1.15621 1.32259C1.4826 0.996202 1.87496 0.833008 2.33329 0.833008H15.6666C16.125 0.833008 16.5173 0.996202 16.8437 1.32259C17.1701 1.64898 17.3333 2.04134 17.3333 2.49967V12.4997C17.3333 12.958 17.1701 13.3504 16.8437 13.6768C16.5173 14.0031 16.125 14.1663 15.6666 14.1663H2.33329ZM2.33329 7.49967H15.6666V4.16634H2.33329V7.49967Z" fill="#737373"/>
</svg>
