<svg width="28" height="28" viewBox="0 0 28 28" fill="none" xmlns="http://www.w3.org/2000/svg">
<path d="M12.8888 21.156L8.8775 25.1447C8.6775 25.3447 8.42384 25.4447 8.1165 25.4447C7.80917 25.4447 7.54806 25.341 7.33317 25.1337C7.11095 24.9188 6.99984 24.6577 6.99984 24.3503C6.99984 24.043 7.11095 23.7782 7.33317 23.556L12.8888 18.0003V15.1113H9.99984L4.49984 20.6113C4.29984 20.8113 4.04617 20.9151 3.73884 20.9227C3.43128 20.93 3.16639 20.83 2.94417 20.6227C2.7295 20.4078 2.61839 20.1467 2.61084 19.8393C2.6035 19.5318 2.71462 19.2632 2.94417 19.0337L6.84417 15.1113H1.74417C1.44062 15.1113 1.18506 15.0058 0.977504 14.7947C0.770171 14.5835 0.666504 14.3188 0.666504 14.0003C0.666504 13.6965 0.772059 13.4354 0.983171 13.217C1.19428 12.9985 1.45906 12.8893 1.7775 12.8893H6.84417L2.8555 8.91133C2.64061 8.69666 2.53317 8.43555 2.53317 8.12799C2.53317 7.82066 2.64428 7.55588 2.8665 7.33366C3.08139 7.11877 3.3425 7.01133 3.64984 7.01133C3.95717 7.01133 4.22195 7.11877 4.44417 7.33366L9.99984 12.8893H12.8888V9.97799L7.38884 4.51133C7.18884 4.31133 7.08884 4.05766 7.08884 3.75033C7.08884 3.44299 7.1925 3.17821 7.39984 2.95599C7.61473 2.7411 7.87584 2.63366 8.18317 2.63366C8.4905 2.63366 8.75906 2.7411 8.98884 2.95599L12.8888 6.82266V1.77799C12.8888 1.47444 12.9944 1.21333 13.2055 0.994659C13.4166 0.776215 13.6814 0.666992 13.9998 0.666992C14.3036 0.666992 14.5647 0.776215 14.7832 0.994659C15.0016 1.21333 15.1108 1.47444 15.1108 1.77799V6.82266L19.0888 2.86699C19.3035 2.6521 19.5646 2.54466 19.8722 2.54466C20.1795 2.54466 20.4443 2.6521 20.6665 2.86699C20.8665 3.08921 20.9665 3.35399 20.9665 3.66133C20.9665 3.96888 20.8591 4.22999 20.6442 4.44466L15.1108 9.97799V12.8893H18.0222L23.5108 7.40033C23.7108 7.20033 23.9646 7.10033 24.2722 7.10033C24.5795 7.10033 24.8443 7.20399 25.0665 7.41133C25.2814 7.62621 25.3888 7.88733 25.3888 8.19466C25.3888 8.50222 25.2814 8.76333 25.0665 8.97799L21.1775 12.8893H26.2222C26.5257 12.8893 26.7868 12.9985 27.0055 13.217C27.2239 13.4354 27.3332 13.6965 27.3332 14.0003C27.3332 14.3188 27.2239 14.5835 27.0055 14.7947C26.7868 15.0058 26.5257 15.1113 26.2222 15.1113H21.1775L25.1108 19.1227C25.3257 19.3227 25.4332 19.5763 25.4332 19.8837C25.4332 20.191 25.3257 20.4447 25.1108 20.6447C24.9035 20.8818 24.6462 21.0003 24.3388 21.0003C24.0313 21.0003 23.7702 20.8892 23.5555 20.667L18.0222 15.1113H15.1108V18.0003L20.6665 23.6113C20.8814 23.8113 20.9888 24.0651 20.9888 24.3727C20.9888 24.68 20.8777 24.9373 20.6555 25.1447C20.4555 25.3744 20.2017 25.4893 19.8942 25.4893C19.5868 25.4893 19.3257 25.3819 19.1108 25.167L15.1108 21.156V26.256C15.1108 26.5595 15.0016 26.8151 14.7832 27.0227C14.5647 27.23 14.3036 27.3337 13.9998 27.3337C13.6814 27.3337 13.4166 27.2281 13.2055 27.017C12.9944 26.8059 12.8888 26.5411 12.8888 26.2227V21.156Z" fill="#737373"/>
</svg>
