<svg width="28" height="28" viewBox="0 0 28 28" fill="none" xmlns="http://www.w3.org/2000/svg">
<path d="M7.55583 5.23407C6.20027 6.31563 5.12061 7.61752 4.31683 9.13974C3.51305 10.662 3.11116 12.2823 3.11116 14.0007C3.11116 16.6896 3.90005 19.0211 5.47783 20.9951C7.05561 22.9693 9.04827 24.2415 11.4558 24.8117C11.7594 24.886 12 25.0471 12.1778 25.2951C12.3556 25.5433 12.4445 25.823 12.4445 26.1341C12.4445 26.4303 12.3372 26.6784 12.1225 26.8784C11.9076 27.0784 11.6668 27.1525 11.4002 27.1007C8.36305 26.5081 5.85194 25.0062 3.86683 22.5951C1.88172 20.184 0.88916 17.3192 0.88916 14.0007C0.88916 12.023 1.33172 10.1563 2.21683 8.40074C3.10194 6.64518 4.29638 5.10441 5.80016 3.77841H3.13349C2.81505 3.77841 2.55027 3.67285 2.33916 3.46174C2.12805 3.25063 2.02249 2.98585 2.02249 2.6674C2.02249 2.34896 2.12805 2.08418 2.33916 1.87307C2.55027 1.66196 2.81505 1.5564 3.13349 1.5564H8.66683C8.98527 1.5564 9.25005 1.66196 9.46116 1.87307C9.67227 2.08418 9.77783 2.34896 9.77783 2.6674V8.20074C9.77783 8.51918 9.67227 8.78396 9.46116 8.99507C9.25005 9.20618 8.98527 9.31174 8.66683 9.31174C8.34838 9.31174 8.08361 9.20618 7.87249 8.99507C7.66138 8.78396 7.55583 8.51918 7.55583 8.20074V5.23407ZM22.2002 24.2231H24.8668C25.1853 24.2231 25.4501 24.3286 25.6612 24.5397C25.8723 24.7509 25.9778 25.0156 25.9778 25.3341C25.9778 25.6525 25.8723 25.9173 25.6612 26.1284C25.4501 26.3395 25.1853 26.4451 24.8668 26.4451H19.3335C19.0151 26.4451 18.7503 26.3395 18.5392 26.1284C18.3281 25.9173 18.2225 25.6525 18.2225 25.3341V19.8007C18.2225 19.4823 18.3281 19.2175 18.5392 19.0064C18.7503 18.7953 19.0151 18.6897 19.3335 18.6897C19.6519 18.6897 19.9167 18.7953 20.1278 19.0064C20.3389 19.2175 20.4445 19.4823 20.4445 19.8007V22.7674C21.8001 21.6636 22.8797 20.3562 23.6835 18.8451C24.4873 17.334 24.8892 15.7192 24.8892 14.0007C24.8892 11.3118 24.1003 8.9804 22.5225 7.0064C20.9447 5.03218 18.9521 3.75996 16.5445 3.18974C16.2409 3.11552 16.0003 2.9544 15.8225 2.7064C15.6447 2.45818 15.5558 2.17852 15.5558 1.8674C15.5558 1.57118 15.6632 1.32307 15.8778 1.12307C16.0927 0.923071 16.3335 0.84896 16.6002 0.900738C19.6373 1.4934 22.1484 2.99152 24.1335 5.39507C26.1186 7.79885 27.1112 10.6674 27.1112 14.0007C27.1112 15.9785 26.6686 17.8452 25.7835 19.6007C24.8984 21.3563 23.7039 22.8971 22.2002 24.2231Z" fill="#737373"/>
</svg>
