<svg width="24" height="24" viewBox="0 0 24 24" fill="none" xmlns="http://www.w3.org/2000/svg">
<path d="M23.9194 13.3591C23.9687 12.913 24 12.4606 24 12.0004C24 11.5402 23.9687 11.0878 23.9186 10.6409L20.4923 9.42234C20.3217 8.86196 20.0978 8.32663 19.827 7.8179L21.386 4.53703C20.8186 3.82556 20.1733 3.17978 19.4623 2.61171L16.1816 4.17388C15.6706 3.89861 15.133 3.67572 14.5772 3.50863L13.3594 0.0821784C12.9125 0.0320887 12.4602 0 12 0C11.5398 0 11.0875 0.0313061 10.6406 0.0821784L9.42281 3.50863C8.86193 3.67924 8.32714 3.90099 7.81843 4.17388L4.53688 2.61171C3.82469 3.17913 3.17981 3.82482 2.61162 4.53703L4.17374 7.81634C3.90087 8.32558 3.67912 8.86039 3.50851 9.42077L0.0821757 10.6417C0.0320877 11.0878 0 11.5418 0 12.0012C0 12.4606 0.031305 12.913 0.0821757 13.3599L3.50851 14.5792C3.67912 15.1396 3.90087 15.6744 4.17374 16.1837L2.6124 19.4645C3.17981 20.1767 3.82547 20.8209 4.53766 21.3883L7.81608 19.8269C8.32531 20.0998 8.86011 20.3221 9.42047 20.4937L10.6398 23.9194C11.0859 23.9687 11.5382 24 11.9992 24C12.4594 24 12.911 23.9687 13.3579 23.9186L14.5772 20.4922C15.1368 20.3215 15.6729 20.0977 16.1816 19.8269L19.4623 21.3859C20.1745 20.8185 20.8186 20.1728 21.386 19.4622L19.8263 16.1821C20.0986 15.6757 20.3224 15.138 20.4931 14.5777L23.9194 13.3591ZM12 15.8119C11.4994 15.812 11.0036 15.7135 10.5411 15.522C10.0785 15.3305 9.65823 15.0498 9.30416 14.6959C8.58909 13.9811 8.18725 13.0115 8.18705 12.0004C8.18684 10.9893 8.58828 10.0196 9.30305 9.30446C10.0178 8.58937 10.9874 8.18752 11.9984 8.18731C13.0095 8.18711 13.9792 8.58856 14.6943 9.30336C15.4093 10.0182 15.8112 10.9877 15.8114 11.9988C15.8116 13.0099 15.4102 13.9797 14.6954 14.6948C13.9806 15.4098 13.0111 15.8117 12 15.8119Z" fill="#8E8E8E"/>
</svg>
