<svg width="22" height="24" viewBox="0 0 22 24" fill="none" xmlns="http://www.w3.org/2000/svg">
<path d="M13.6164 18.9997C12.7997 18.9997 12.1094 18.7177 11.5455 18.1538C10.9817 17.59 10.6997 16.8997 10.6997 16.083C10.6997 15.2663 10.9817 14.5761 11.5455 14.0122C12.1094 13.4483 12.7997 13.1663 13.6164 13.1663C14.433 13.1663 15.1233 13.4483 15.6872 14.0122C16.2511 14.5761 16.533 15.2663 16.533 16.083C16.533 16.8997 16.2511 17.59 15.6872 18.1538C15.1233 18.7177 14.433 18.9997 13.6164 18.9997ZM2.53304 23.6663C1.89137 23.6663 1.34207 23.4379 0.885124 22.9809C0.428179 22.524 0.199707 21.9747 0.199707 21.333V4.99967C0.199707 4.35801 0.428179 3.8087 0.885124 3.35176C1.34207 2.89481 1.89137 2.66634 2.53304 2.66634H3.69971V1.49967C3.69971 1.16912 3.81151 0.892036 4.03512 0.668424C4.25873 0.444813 4.53582 0.333008 4.86637 0.333008C5.19693 0.333008 5.47401 0.444813 5.69762 0.668424C5.92123 0.892036 6.03304 1.16912 6.03304 1.49967V2.66634H15.3664V1.49967C15.3664 1.16912 15.4782 0.892036 15.7018 0.668424C15.9254 0.444813 16.2025 0.333008 16.533 0.333008C16.8636 0.333008 17.1407 0.444813 17.3643 0.668424C17.5879 0.892036 17.6997 1.16912 17.6997 1.49967V2.66634H18.8664C19.508 2.66634 20.0573 2.89481 20.5143 3.35176C20.9712 3.8087 21.1997 4.35801 21.1997 4.99967V21.333C21.1997 21.9747 20.9712 22.524 20.5143 22.9809C20.0573 23.4379 19.508 23.6663 18.8664 23.6663H2.53304ZM2.53304 21.333H18.8664V9.66634H2.53304V21.333Z"/>
</svg>
