<svg width="18" height="17" viewBox="0 0 18 17" fill="none" xmlns="http://www.w3.org/2000/svg">
<path d="M3.99984 14.0003L2.08317 15.917C1.81928 16.1809 1.5172 16.2399 1.17692 16.0941C0.836643 15.9482 0.666504 15.6878 0.666504 15.3128V2.33366C0.666504 1.87533 0.829698 1.48296 1.15609 1.15658C1.48248 0.830187 1.87484 0.666992 2.33317 0.666992H15.6665C16.1248 0.666992 16.5172 0.830187 16.8436 1.15658C17.17 1.48296 17.3332 1.87533 17.3332 2.33366V12.3337C17.3332 12.792 17.17 13.1844 16.8436 13.5107C16.5172 13.8371 16.1248 14.0003 15.6665 14.0003H3.99984ZM4.83317 10.667H9.83317C10.0693 10.667 10.2672 10.5871 10.4269 10.4274C10.5866 10.2677 10.6665 10.0698 10.6665 9.83366C10.6665 9.59755 10.5866 9.39963 10.4269 9.23991C10.2672 9.08019 10.0693 9.00033 9.83317 9.00033H4.83317C4.59706 9.00033 4.39914 9.08019 4.23942 9.23991C4.0797 9.39963 3.99984 9.59755 3.99984 9.83366C3.99984 10.0698 4.0797 10.2677 4.23942 10.4274C4.39914 10.5871 4.59706 10.667 4.83317 10.667ZM4.83317 8.16699H13.1665C13.4026 8.16699 13.6005 8.08713 13.7603 7.92741C13.92 7.76769 13.9998 7.56977 13.9998 7.33366C13.9998 7.09755 13.92 6.89963 13.7603 6.73991C13.6005 6.58019 13.4026 6.50033 13.1665 6.50033H4.83317C4.59706 6.50033 4.39914 6.58019 4.23942 6.73991C4.0797 6.89963 3.99984 7.09755 3.99984 7.33366C3.99984 7.56977 4.0797 7.76769 4.23942 7.92741C4.39914 8.08713 4.59706 8.16699 4.83317 8.16699ZM4.83317 5.66699H13.1665C13.4026 5.66699 13.6005 5.58713 13.7603 5.42741C13.92 5.26769 13.9998 5.06977 13.9998 4.83366C13.9998 4.59755 13.92 4.39963 13.7603 4.23991C13.6005 4.08019 13.4026 4.00033 13.1665 4.00033H4.83317C4.59706 4.00033 4.39914 4.08019 4.23942 4.23991C4.0797 4.39963 3.99984 4.59755 3.99984 4.83366C3.99984 5.06977 4.0797 5.26769 4.23942 5.42741C4.39914 5.58713 4.59706 5.66699 4.83317 5.66699Z" fill="#39B269"/>
</svg>
