<svg width="21" height="20" viewBox="0 0 21 20" fill="none" xmlns="http://www.w3.org/2000/svg">
<path d="M9.1 11.8L6.95 9.65C6.76667 9.46667 6.53333 9.375 6.25 9.375C5.96667 9.375 5.73333 9.46667 5.55 9.65C5.36667 9.83333 5.275 10.0667 5.275 10.35C5.275 10.6333 5.36667 10.8667 5.55 11.05L8.4 13.9C8.6 14.1 8.83333 14.2 9.1 14.2C9.36667 14.2 9.6 14.1 9.8 13.9L15.45 8.25C15.6333 8.06667 15.725 7.83333 15.725 7.55C15.725 7.26667 15.6333 7.03333 15.45 6.85C15.2667 6.66667 15.0333 6.575 14.75 6.575C14.4667 6.575 14.2333 6.66667 14.05 6.85L9.1 11.8ZM10.5 20C9.11667 20 7.81667 19.7375 6.6 19.2125C5.38333 18.6875 4.325 17.975 3.425 17.075C2.525 16.175 1.8125 15.1167 1.2875 13.9C0.7625 12.6833 0.5 11.3833 0.5 10C0.5 8.61667 0.7625 7.31667 1.2875 6.1C1.8125 4.88333 2.525 3.825 3.425 2.925C4.325 2.025 5.38333 1.3125 6.6 0.7875C7.81667 0.2625 9.11667 0 10.5 0C11.8833 0 13.1833 0.2625 14.4 0.7875C15.6167 1.3125 16.675 2.025 17.575 2.925C18.475 3.825 19.1875 4.88333 19.7125 6.1C20.2375 7.31667 20.5 8.61667 20.5 10C20.5 11.3833 20.2375 12.6833 19.7125 13.9C19.1875 15.1167 18.475 16.175 17.575 17.075C16.675 17.975 15.6167 18.6875 14.4 19.2125C13.1833 19.7375 11.8833 20 10.5 20Z" fill="#39B269"/>
</svg>
