<svg width="25" height="21" viewBox="0 0 25 21" fill="none" xmlns="http://www.w3.org/2000/svg">
<path d="M12.5002 20.7126C12.2279 20.7126 11.9509 20.664 11.6689 20.5668C11.387 20.4696 11.1391 20.314 10.9252 20.1001L8.91266 18.2626C6.85155 16.3765 4.98975 14.505 3.32725 12.648C1.66475 10.7911 0.833496 8.74457 0.833496 6.50846C0.833496 4.68069 1.446 3.1543 2.671 1.9293C3.896 0.704297 5.42239 0.0917969 7.25016 0.0917969C8.28072 0.0917969 9.25294 0.310547 10.1668 0.748047C11.0807 1.18555 11.8585 1.78346 12.5002 2.5418C13.1418 1.78346 13.9196 1.18555 14.8335 0.748047C15.7474 0.310547 16.7196 0.0917969 17.7502 0.0917969C19.5779 0.0917969 21.1043 0.704297 22.3293 1.9293C23.5543 3.1543 24.1668 4.68069 24.1668 6.50846C24.1668 8.74457 23.3404 10.796 21.6877 12.6626C20.0349 14.5293 18.1585 16.4057 16.0585 18.2918L14.0752 20.1001C13.8613 20.314 13.6134 20.4696 13.3314 20.5668C13.0495 20.664 12.7724 20.7126 12.5002 20.7126Z"/>
</svg>
