<svg width="26" height="24" viewBox="0 0 26 24" fill="none" xmlns="http://www.w3.org/2000/svg">
<path fill-rule="evenodd" clip-rule="evenodd" d="M12.7898 6C12.2375 6 11.7898 6.44772 11.7898 7V11H7.52661C6.97433 11 6.52661 11.4477 6.52661 12C6.52661 12.5523 6.97433 13 7.52661 13H11.7898V17C11.7898 17.5523 12.2375 18 12.7898 18H12.895C13.4473 18 13.895 17.5523 13.895 17V13H18.1582C18.7105 13 19.1582 12.5523 19.1582 12C19.1582 11.4477 18.7105 11 18.1582 11H13.895V7C13.895 6.44772 13.4473 6 12.895 6H12.7898Z" fill="#DF1525"/>
</svg>
