<svg width="20" height="28" viewBox="0 0 20 28" fill="none" xmlns="http://www.w3.org/2000/svg">
<path d="M7.92252 23.7557L16.4225 13.5557H10.6445L11.7668 4.67765L4.08918 15.7776H9.05585L7.92252 23.7557ZM6.50018 18H1.94452C1.50207 18 1.17485 17.8019 0.962849 17.4057C0.750626 17.0092 0.777848 16.6259 1.04452 16.2557L11.8778 0.633316C12.0705 0.366649 12.315 0.183316 12.6112 0.0833155C12.9076 -0.0166845 13.2076 -0.00746167 13.5112 0.110983C13.815 0.229649 14.0483 0.427204 14.2112 0.703648C14.3743 0.980315 14.4336 1.27543 14.3892 1.58898L13.1668 11.3333H18.8002C19.2795 11.3333 19.6161 11.5444 19.8098 11.9667C20.0034 12.3889 19.9483 12.7852 19.6445 13.1557L7.74451 27.4223C7.53807 27.6652 7.28463 27.8241 6.98418 27.899C6.68374 27.9736 6.39652 27.9462 6.12252 27.8167C5.84829 27.6871 5.63163 27.488 5.47252 27.2193C5.31318 26.9509 5.25574 26.6592 5.30018 26.3443L6.50018 18Z" fill="#737373"/>
</svg>
