<svg width="22" height="26" viewBox="0 0 22 26" fill="none" xmlns="http://www.w3.org/2000/svg">
<path d="M10.9962 25.8333C10.6804 25.8333 10.4169 25.7269 10.2058 25.514C9.99472 25.3009 9.88916 25.037 9.88916 24.7223V21.8333H1.4445C1.12983 21.8333 0.865941 21.7264 0.652829 21.5127C0.439941 21.2991 0.333496 21.0343 0.333496 20.7183C0.333496 20.4023 0.439941 20.1388 0.652829 19.9277C0.865941 19.7166 1.12983 19.611 1.4445 19.611H20.5558C20.8705 19.611 21.1344 19.7179 21.3475 19.9317C21.5604 20.1454 21.6668 20.4102 21.6668 20.726C21.6668 21.042 21.5604 21.3056 21.3475 21.5167C21.1344 21.7278 20.8705 21.8333 20.5558 21.8333H12.1112V24.7223C12.1112 25.037 12.0044 25.3009 11.7908 25.514C11.5771 25.7269 11.3122 25.8333 10.9962 25.8333ZM6.22616 11.7667C6.54216 11.7667 6.80572 11.6598 7.01683 11.446C7.22794 11.2324 7.3335 10.9677 7.3335 10.6517C7.3335 10.3357 7.22661 10.0721 7.01283 9.861C6.79927 9.64989 6.5345 9.54433 6.2185 9.54433C5.9025 9.54433 5.63894 9.65122 5.42783 9.865C5.21672 10.0788 5.11116 10.3436 5.11116 10.6593C5.11116 10.9753 5.21805 11.2389 5.43183 11.45C5.64561 11.6611 5.91039 11.7667 6.22616 11.7667ZM15.7818 11.7667C16.0978 11.7667 16.3614 11.6598 16.5725 11.446C16.7836 11.2324 16.8892 10.9677 16.8892 10.6517C16.8892 10.3357 16.7823 10.0721 16.5685 9.861C16.3547 9.64989 16.0899 9.54433 15.7742 9.54433C15.4582 9.54433 15.1946 9.65122 14.9835 9.865C14.7724 10.0788 14.6668 10.3436 14.6668 10.6593C14.6668 10.9753 14.7737 11.2389 14.9875 11.45C15.2011 11.6611 15.4658 11.7667 15.7818 11.7667ZM2.77416 17.8333C2.45816 17.8333 2.19461 17.7269 1.9835 17.514C1.77239 17.3009 1.66683 17.037 1.66683 16.7223V8.33333C1.66683 8.20889 1.67427 8.08889 1.68916 7.97333C1.70383 7.85778 1.73339 7.74078 1.77783 7.62233L3.71116 1.989C3.85938 1.54767 4.12794 1.18922 4.51683 0.913666C4.90572 0.637888 5.34094 0.5 5.8225 0.5H16.1778C16.6594 0.5 17.0946 0.637888 17.4835 0.913666C17.8724 1.18922 18.1409 1.54767 18.2892 1.989L20.2225 7.62233C20.2669 7.74078 20.2965 7.85778 20.3112 7.97333C20.3261 8.08889 20.3335 8.20889 20.3335 8.33333V16.7223C20.3335 17.037 20.2266 17.3009 20.0128 17.514C19.7993 17.7269 19.5345 17.8333 19.2185 17.8333C18.9025 17.8333 18.6389 17.7269 18.4278 17.514C18.2167 17.3009 18.1112 17.037 18.1112 16.7223V14.989H3.88916V16.7223C3.88916 17.037 3.78227 17.3009 3.5685 17.514C3.35472 17.7269 3.08994 17.8333 2.77416 17.8333ZM4.55583 6.32233H17.4668L16.2445 2.72233H5.75583L4.55583 6.32233ZM3.88916 12.7667H18.1112V8.54433H3.88916V12.7667Z" fill="#737373"/>
</svg>
