<svg width="27" height="28" viewBox="0 0 27 28" fill="none" xmlns="http://www.w3.org/2000/svg">
<path d="M18.5392 20.8003C19.0685 20.8003 19.5128 20.6189 19.8722 20.256C20.2313 19.8929 20.4108 19.4521 20.4108 18.9337C20.4108 18.4028 20.2294 17.9515 19.8665 17.58C19.5036 17.2084 19.0628 17.0227 18.5442 17.0227C18.0133 17.0227 17.5621 17.2079 17.1905 17.5783C16.8189 17.949 16.6332 18.399 16.6332 18.9283C16.6332 19.4579 16.8185 19.9022 17.1892 20.2613C17.5596 20.6207 18.0096 20.8003 18.5392 20.8003ZM5.85017 20.8003C6.3795 20.8003 6.82384 20.6189 7.18317 20.256C7.5425 19.8929 7.72217 19.4521 7.72217 18.9337C7.72217 18.4028 7.54061 17.9515 7.1775 17.58C6.81461 17.2084 6.37395 17.0227 5.8555 17.0227C5.32462 17.0227 4.87339 17.2079 4.50184 17.5783C4.13006 17.949 3.94417 18.399 3.94417 18.9283C3.94417 19.4579 4.1295 19.9022 4.50017 20.2613C4.87084 20.6207 5.32084 20.8003 5.85017 20.8003ZM20.3708 13.6003C18.5828 13.6003 17.0573 12.9688 15.7942 11.7057C14.5313 10.4425 13.8998 8.91488 13.8998 7.12266C13.8998 5.35221 14.5295 3.83366 15.7888 2.56699C17.0479 1.30033 18.5738 0.666992 20.3665 0.666992C22.1665 0.666992 23.6943 1.29477 24.9498 2.55033C26.2054 3.80588 26.8332 5.33366 26.8332 7.13366C26.8332 8.93366 26.2031 10.4614 24.9428 11.717C23.6826 12.9725 22.1586 13.6003 20.3708 13.6003ZM20.4332 8.24466C20.6109 8.24466 20.7554 8.18544 20.8665 8.06699C20.9776 7.94855 21.0332 7.80044 21.0332 7.62266V3.88933C21.0332 3.71155 20.9739 3.5671 20.8555 3.45599C20.7368 3.34488 20.5886 3.28933 20.4108 3.28933C20.2331 3.28933 20.0886 3.34855 19.9775 3.46699C19.8664 3.58544 19.8108 3.73355 19.8108 3.91133V7.64466C19.8108 7.82244 19.8702 7.96688 19.9888 8.07799C20.1073 8.1891 20.2554 8.24466 20.4332 8.24466ZM20.4222 11.0227C20.6222 11.0227 20.7925 10.956 20.9332 10.8227C21.0738 10.6893 21.1442 10.5189 21.1442 10.3113C21.1442 10.104 21.0731 9.93366 20.9308 9.80033C20.7886 9.66699 20.6227 9.60033 20.4332 9.60033C20.2109 9.61522 20.0368 9.68933 19.9108 9.82266C19.7851 9.95599 19.7222 10.1227 19.7222 10.3227C19.7222 10.5227 19.7888 10.6893 19.9222 10.8227C20.0555 10.956 20.2222 11.0227 20.4222 11.0227ZM0.166504 15.8447C0.166504 15.7238 0.173948 15.6028 0.188837 15.4817C0.203504 15.3608 0.23306 15.2411 0.277504 15.1227L2.98884 7.11133C3.10728 6.77066 3.30906 6.50033 3.59417 6.30033C3.8795 6.10033 4.20362 6.00033 4.5665 6.00033H8.4555V4.88533C8.4555 4.56933 8.56195 4.30577 8.77484 4.09466C8.98773 3.88355 9.25162 3.77799 9.5665 3.77799H11.2555C11.5146 3.77799 11.7091 3.87799 11.8388 4.07799C11.9684 4.27799 11.9899 4.5021 11.9035 4.75033C11.7826 5.13188 11.6999 5.52233 11.6555 5.92166C11.6111 6.32099 11.5888 6.72499 11.5888 7.13366V7.32466C11.5888 7.5751 11.5142 7.78733 11.3648 7.96133C11.2157 8.13555 11.0199 8.22266 10.7775 8.22266H4.94417L3.2555 13.2447H13.5888C13.9035 13.2447 14.1674 13.3515 14.3805 13.5653C14.5934 13.7791 14.6998 14.0439 14.6998 14.3597C14.6998 14.6757 14.5934 14.9392 14.3805 15.1503C14.1674 15.3614 13.9035 15.467 13.5888 15.467H2.38884V22.356H21.9442V16.9893C21.9442 16.6744 22.0511 16.4105 22.2648 16.1977C22.4786 15.9845 22.7434 15.878 23.0592 15.878C23.3752 15.878 23.6387 15.9845 23.8498 16.1977C24.0609 16.4105 24.1665 16.6744 24.1665 16.9893V25.778C24.1665 26.2102 24.0147 26.5775 23.7112 26.88C23.4078 27.1824 23.0394 27.3337 22.6058 27.3337C22.1723 27.3337 21.8055 27.1824 21.5055 26.88C21.2055 26.5775 21.0555 26.2102 21.0555 25.778V24.578H3.2775V25.778C3.2775 26.2102 3.12584 26.5775 2.8225 26.88C2.51895 27.1824 2.15039 27.3337 1.71684 27.3337C1.28328 27.3337 0.916504 27.1824 0.616504 26.88C0.316504 26.5775 0.166504 26.2102 0.166504 25.778V15.8447Z" fill="#737373"/>
</svg>
