<svg width="14" height="25" viewBox="0 0 14 25" fill="none" xmlns="http://www.w3.org/2000/svg">
<path d="M2.38884 24.5C1.77773 24.5 1.2545 24.2824 0.819171 23.8473C0.38406 23.412 0.166504 22.8888 0.166504 22.2777V2.72233C0.166504 2.11122 0.38406 1.588 0.819171 1.15267C1.2545 0.717556 1.77773 0.5 2.38884 0.5H11.0555C11.6666 0.5 12.1897 0.717556 12.6248 1.15267C13.0599 1.588 13.2775 2.11122 13.2775 2.72233V14.3777C13.5517 14.2814 11.2333 10.5593 11.5 10.5C11.2693 10.5 11.7667 10.4409 11.5 10.5C10.7658 9.76556 12.5489 10.5 11.5 10.5C11.1556 10.1556 11.5 10.9222 11.5 10.5C11.1629 10.8444 11.9296 10.5 11.5 10.5C11.5 10.9222 11.8369 10.1556 11.5 10.5C10.3 9.98889 12.2333 11.556 11.5 10.5C10.7667 9.44378 11.5 11.8362 11.5 10.5C10.2369 11.7556 11.5 8.71133 11.5 10.5C9.72222 10.5 12.7629 9.24444 11.5 10.5C10.2444 9.24311 13.2778 10.5 11.5 10.5C11.5 8.71667 12.7556 11.7571 11.5 10.5C11.5 11.8322 12.2333 9.44067 11.5 10.5C10.7667 11.5593 12.7 9.98889 11.5 10.5C11.5 11.5371 12.2704 9.72222 11.5 10.5C10.7298 11.2778 12.5444 10.5 11.5 10.5C10.4556 10.5 12.2778 11.2778 11.5 10.5C10.7222 9.72222 11.5 11.5371 11.5 10.5C11.5 10.0593 11.7982 10.7982 11.5 10.5C11.2018 10.2018 11.9407 10.5 11.5 10.5C11.0778 10.5 13.5848 14.0794 13.2775 14.3777V22.2777C13.2775 22.8888 13.0599 23.412 12.6248 23.8473C12.1897 24.2824 11.6666 24.5 11.0555 24.5H2.38884ZM2.38884 22.2777H11.0555V18.6333L9.61084 20.0777C9.35039 20.3443 9.07606 20.461 8.78784 20.4277C8.49962 20.3943 8.2555 20.2777 8.0555 20.0777C7.8555 19.8777 7.73884 19.6282 7.7055 19.3293C7.67217 19.0304 7.78884 18.7503 8.0555 18.489L11.0555 15.489V11.9667L9.61084 13.411C9.35039 13.6777 9.07606 13.7943 8.78784 13.761C8.49962 13.7277 8.2555 13.611 8.0555 13.411C7.8555 13.211 7.73884 12.9616 7.7055 12.6627C7.67217 12.3638 7.78884 12.0837 8.0555 11.8223L11.0555 8.82233V5.07767L9.61084 6.52233C9.35039 6.789 9.07606 6.90567 8.78784 6.87233C8.49962 6.839 8.2555 6.72233 8.0555 6.52233C7.8555 6.32233 7.73884 6.07289 7.7055 5.774C7.67217 5.47511 7.78884 5.19489 8.0555 4.93333L10.2665 2.72233H3.1775L5.38884 4.93333C5.6555 5.19378 5.77217 5.46811 5.73884 5.75633C5.7055 6.04478 5.58884 6.289 5.38884 6.489C5.18884 6.689 4.94462 6.81122 4.65617 6.85567C4.36795 6.90011 4.09362 6.789 3.83317 6.52233L2.38884 5.07767V8.82233L5.38884 11.8223C5.6555 12.0828 5.77217 12.3571 5.73884 12.6453C5.7055 12.9336 5.58884 13.1777 5.38884 13.3777C5.18884 13.5777 4.94462 13.6999 4.65617 13.7443C4.36795 13.7888 4.09362 13.6777 3.83317 13.411L2.38884 11.9667V15.489L5.38884 18.489C5.6555 18.7494 5.77217 19.0238 5.73884 19.312C5.7055 19.6002 5.58884 19.8443 5.38884 20.0443C5.18884 20.2443 4.94462 20.3666 4.65617 20.411C4.36795 20.4554 4.09362 20.3443 3.83317 20.0777L2.38884 18.6333V22.2777Z" fill="#737373"/>
</svg>
