<svg width="20" height="20" viewBox="0 0 20 20" fill="none" xmlns="http://www.w3.org/2000/svg">
<mask id="mask0_733_2294" style="mask-type:alpha" maskUnits="userSpaceOnUse" x="0" y="0" width="20" height="20">
<rect width="20" height="20" fill="#D9D9D9"/>
</mask>
<g mask="url(#mask0_733_2294)">
<path d="M3.33317 20C2.87484 20 2.48248 19.8368 2.15609 19.5104C1.8297 19.184 1.6665 18.7917 1.6665 18.3333C1.6665 17.875 1.8297 17.4826 2.15609 17.1562C2.48248 16.8299 2.87484 16.6667 3.33317 16.6667H16.6665C17.1248 16.6667 17.5172 16.8299 17.8436 17.1562C18.17 17.4826 18.3332 17.875 18.3332 18.3333C18.3332 18.7917 18.17 19.184 17.8436 19.5104C17.5172 19.8368 17.1248 20 16.6665 20H3.33317ZM3.33317 14.1667V11.8125C3.33317 11.7014 3.354 11.5937 3.39567 11.4896C3.43734 11.3854 3.49984 11.2917 3.58317 11.2083L12.6665 2.14582C12.8193 1.99305 12.9964 1.87499 13.1978 1.79166C13.3991 1.70832 13.6109 1.66666 13.8332 1.66666C14.0554 1.66666 14.2707 1.70832 14.479 1.79166C14.6873 1.87499 14.8748 1.99999 15.0415 2.16666L16.1873 3.33332C16.354 3.4861 16.4755 3.66666 16.5519 3.87499C16.6283 4.08332 16.6665 4.2986 16.6665 4.52082C16.6665 4.72916 16.6283 4.93402 16.5519 5.13541C16.4755 5.3368 16.354 5.52082 16.1873 5.68749L7.12484 14.75C7.0415 14.8333 6.94775 14.8958 6.84359 14.9375C6.73942 14.9792 6.63178 15 6.52067 15H4.1665C3.93039 15 3.73248 14.9201 3.57275 14.7604C3.41303 14.6007 3.33317 14.4028 3.33317 14.1667ZM13.8332 5.66666L14.9998 4.49999L13.8332 3.33332L12.6665 4.49999L13.8332 5.66666Z" fill="#39B269"/>
</g>
</svg>
