<svg width="20" height="19" viewBox="0 0 20 19" fill="none" xmlns="http://www.w3.org/2000/svg">
<path d="M5 12H6.65C6.78333 12 6.9125 11.975 7.0375 11.925C7.1625 11.875 7.275 11.8 7.375 11.7L12.05 7C12.2 6.85 12.3125 6.67917 12.3875 6.4875C12.4625 6.29583 12.5 6.10833 12.5 5.925C12.5 5.74167 12.4625 5.5625 12.3875 5.3875C12.3125 5.2125 12.2083 5.05 12.075 4.9L11.15 3.95C11 3.8 10.8333 3.6875 10.65 3.6125C10.4667 3.5375 10.275 3.5 10.075 3.5C9.89167 3.5 9.70833 3.5375 9.525 3.6125C9.34167 3.6875 9.175 3.8 9.025 3.95L4.3 8.625C4.2 8.725 4.125 8.8375 4.075 8.9625C4.025 9.0875 4 9.21667 4 9.35V11C4 11.2833 4.09583 11.5208 4.2875 11.7125C4.47917 11.9042 4.71667 12 5 12ZM10.05 6.9L9.1 5.975L10.075 5L11 5.95L10.05 6.9ZM9.2 12H15C15.2833 12 15.5208 11.9042 15.7125 11.7125C15.9042 11.5208 16 11.2833 16 11C16 10.7167 15.9042 10.4792 15.7125 10.2875C15.5208 10.0958 15.2833 10 15 10H11.2L9.2 12ZM4 16L1.7 18.3C1.38333 18.6167 1.02083 18.6875 0.6125 18.5125C0.204167 18.3375 0 18.025 0 17.575V2C0 1.45 0.195833 0.979167 0.5875 0.5875C0.979167 0.195833 1.45 0 2 0H18C18.55 0 19.0208 0.195833 19.4125 0.5875C19.8042 0.979167 20 1.45 20 2V14C20 14.55 19.8042 15.0208 19.4125 15.4125C19.0208 15.8042 18.55 16 18 16H4Z" fill="#737373"/>
</svg>
