<svg width="17" height="23" viewBox="0 0 17 23" fill="none" xmlns="http://www.w3.org/2000/svg">
<path d="M2.28246 22.1706C1.73666 22.1706 1.26942 21.9769 0.880745 21.5893C0.492068 21.2018 0.297729 20.7359 0.297729 20.1916V9.30712C0.297729 8.7629 0.492068 8.29701 0.880745 7.90945C1.26942 7.5219 1.73666 7.32812 2.28246 7.32812H5.25956V9.30712H2.28246V20.1916H14.1909V9.30712H11.2138V7.32812H14.1909C14.7367 7.32812 15.2039 7.5219 15.5926 7.90945C15.9813 8.29701 16.1756 8.7629 16.1756 9.30712V20.1916C16.1756 20.7359 15.9813 21.2018 15.5926 21.5893C15.2039 21.9769 14.7367 22.1706 14.1909 22.1706H2.28246ZM7.24429 15.2441V4.18645L5.65651 5.76966L4.2672 4.35962L8.23666 0.401611L12.2061 4.35962L10.8168 5.76966L9.22903 4.18645V15.2441H7.24429Z" fill="#5F6368" fill-opacity="0.89"/>
</svg>
