<svg width="24" height="24" viewBox="0 0 20 20" fill="none" xmlns="http://www.w3.org/2000/svg">
<path d="M18.772 11.155L17.404 7.051C17.2056 6.45348 16.8238 5.9337 16.3131 5.56551C15.8024 5.19731 15.1886 4.99944 14.559 5H5.441C4.81139 4.99944 4.19761 5.19731 3.68688 5.56551C3.17615 5.9337 2.79445 6.45348 2.596 7.051L1.228 11.155C0.864222 11.3072 0.55356 11.5636 0.335067 11.8918C0.116573 12.2201 -4.809e-07 12.6057 0 13V16C0 16.738 0.404 17.376 1 17.723V19C1 19.2652 1.10536 19.5196 1.29289 19.7071C1.48043 19.8946 1.73478 20 2 20H3C3.26522 20 3.51957 19.8946 3.70711 19.7071C3.89464 19.5196 4 19.2652 4 19V18H16V19C16 19.2652 16.1054 19.5196 16.2929 19.7071C16.4804 19.8946 16.7348 20 17 20H18C18.2652 20 18.5196 19.8946 18.7071 19.7071C18.8946 19.5196 19 19.2652 19 19V17.723C19.3034 17.549 19.5556 17.2981 19.7311 16.9956C19.9067 16.6932 19.9994 16.3497 20 16V13C20 12.169 19.493 11.458 18.772 11.155ZM5.441 7H14.558C14.768 6.99995 14.9726 7.06599 15.143 7.18876C15.3133 7.31153 15.4407 7.48479 15.507 7.684L16.613 11H3.387L4.492 7.684C4.629 7.275 5.011 7 5.441 7ZM3.5 16C3.30295 15.9999 3.10785 15.9611 2.92582 15.8856C2.7438 15.8101 2.57842 15.6995 2.43913 15.5602C2.15783 15.2787 1.99987 14.897 2 14.499C2.00013 14.101 2.15835 13.7194 2.43984 13.4381C2.72133 13.1568 3.10304 12.9989 3.501 12.999C3.89896 12.9991 4.28056 13.1573 4.56187 13.4388C4.84317 13.7203 5.00113 14.102 5.001 14.5C5.00087 14.898 4.84265 15.2796 4.56116 15.5609C4.27967 15.8422 3.89796 16.0001 3.5 16ZM16.5 16C16.102 15.9999 15.7204 15.8417 15.4391 15.5602C15.1578 15.2787 14.9999 14.897 15 14.499C15.0001 14.101 15.1583 13.7194 15.4398 13.4381C15.7213 13.1568 16.103 12.9989 16.501 12.999C16.899 12.9991 17.2806 13.1573 17.5619 13.4388C17.8432 13.7203 18.0011 14.102 18.001 14.5C18.0009 14.898 17.8427 15.2796 17.5612 15.5609C17.2797 15.8422 16.898 16.0001 16.5 16ZM3.277 3C3.624 3.595 4.262 4 5 4C5.738 4 6.376 3.595 6.723 3H13.278C13.624 3.595 14.262 4 15 4C15.738 4 16.376 3.595 16.723 3H15V1H16.723C16.376 0.405 15.738 0 15 0C14.262 0 13.624 0.405 13.277 1H6.723C6.376 0.405 5.738 0 5 0C4.262 0 3.624 0.405 3.277 1H5V3H3.277Z" fill="#39B269"/>
</svg>
