<svg width="16" height="17" viewBox="0 0 16 17" fill="none" xmlns="http://www.w3.org/2000/svg">
<path d="M7.125 11.3753L10.0208 8.47949C10.1875 8.31283 10.3889 8.22949 10.625 8.22949C10.8611 8.22949 11.0625 8.31283 11.2292 8.47949C11.3958 8.64616 11.4792 8.84755 11.4792 9.08366C11.4792 9.31977 11.3958 9.52116 11.2292 9.68783L7.70833 13.2087C7.54167 13.3753 7.34722 13.4587 7.125 13.4587C6.90278 13.4587 6.70833 13.3753 6.54167 13.2087L4.77083 11.4378C4.60417 11.2712 4.52083 11.0698 4.52083 10.8337C4.52083 10.5975 4.60417 10.3962 4.77083 10.2295C4.9375 10.0628 5.13889 9.97949 5.375 9.97949C5.61111 9.97949 5.8125 10.0628 5.97917 10.2295L7.125 11.3753ZM2.16667 16.8337C1.70833 16.8337 1.31597 16.6705 0.989583 16.3441C0.663194 16.0177 0.5 15.6253 0.5 15.167V3.50033C0.5 3.04199 0.663194 2.64963 0.989583 2.32324C1.31597 1.99685 1.70833 1.83366 2.16667 1.83366H3V1.00033C3 0.764214 3.07986 0.566298 3.23958 0.406576C3.39931 0.246853 3.59722 0.166992 3.83333 0.166992C4.06944 0.166992 4.26736 0.246853 4.42708 0.406576C4.58681 0.566298 4.66667 0.764214 4.66667 1.00033V1.83366H11.3333V1.00033C11.3333 0.764214 11.4132 0.566298 11.5729 0.406576C11.7326 0.246853 11.9306 0.166992 12.1667 0.166992C12.4028 0.166992 12.6007 0.246853 12.7604 0.406576C12.9201 0.566298 13 0.764214 13 1.00033V1.83366H13.8333C14.2917 1.83366 14.684 1.99685 15.0104 2.32324C15.3368 2.64963 15.5 3.04199 15.5 3.50033V15.167C15.5 15.6253 15.3368 16.0177 15.0104 16.3441C14.684 16.6705 14.2917 16.8337 13.8333 16.8337H2.16667ZM2.16667 15.167H13.8333V6.83366H2.16667V15.167Z" fill="#737373"/>
</svg>
