<svg width="28" height="18" viewBox="0 0 28 18" fill="none" xmlns="http://www.w3.org/2000/svg">
<path d="M0.875 0.25H27.125V17.75H0.875V0.25ZM14 4.625C15.1603 4.625 16.2731 5.08594 17.0936 5.90641C17.9141 6.72688 18.375 7.83968 18.375 9C18.375 10.1603 17.9141 11.2731 17.0936 12.0936C16.2731 12.9141 15.1603 13.375 14 13.375C12.8397 13.375 11.7269 12.9141 10.9064 12.0936C10.0859 11.2731 9.625 10.1603 9.625 9C9.625 7.83968 10.0859 6.72688 10.9064 5.90641C11.7269 5.08594 12.8397 4.625 14 4.625ZM6.70833 3.16667C6.70833 3.94021 6.40104 4.68208 5.85406 5.22906C5.30708 5.77604 4.56521 6.08333 3.79167 6.08333V11.9167C4.56521 11.9167 5.30708 12.224 5.85406 12.7709C6.40104 13.3179 6.70833 14.0598 6.70833 14.8333H21.2917C21.2917 14.0598 21.599 13.3179 22.1459 12.7709C22.6929 12.224 23.4348 11.9167 24.2083 11.9167V6.08333C23.4348 6.08333 22.6929 5.77604 22.1459 5.22906C21.599 4.68208 21.2917 3.94021 21.2917 3.16667H6.70833Z" fill="#192921"/>
</svg>
