<svg width="10" height="13" viewBox="0 0 10 13" fill="none" xmlns="http://www.w3.org/2000/svg">
<path d="M0 10.875V9.625H1.25V5.25C1.25 4.38542 1.51042 3.61719 2.03125 2.94531C2.55208 2.27344 3.22917 1.83333 4.0625 1.625V1.1875C4.0625 0.927083 4.15365 0.705729 4.33594 0.523438C4.51823 0.341146 4.73958 0.25 5 0.25C5.26042 0.25 5.48177 0.341146 5.66406 0.523438C5.84635 0.705729 5.9375 0.927083 5.9375 1.1875V1.625C6.77083 1.83333 7.44792 2.27344 7.96875 2.94531C8.48958 3.61719 8.75 4.38542 8.75 5.25V9.625H10V10.875H0ZM5 12.75C4.65625 12.75 4.36198 12.6276 4.11719 12.3828C3.8724 12.138 3.75 11.8438 3.75 11.5H6.25C6.25 11.8438 6.1276 12.138 5.88281 12.3828C5.63802 12.6276 5.34375 12.75 5 12.75ZM2.5 9.625H7.5V5.25C7.5 4.5625 7.25521 3.97396 6.76562 3.48438C6.27604 2.99479 5.6875 2.75 5 2.75C4.3125 2.75 3.72396 2.99479 3.23438 3.48438C2.74479 3.97396 2.5 4.5625 2.5 5.25V9.625Z" fill="#686D5D"/>
</svg>
