<svg width="12" height="8" viewBox="0 0 12 8" fill="none" xmlns="http://www.w3.org/2000/svg">
<path d="M4.36655 5.96437L9.94488 0.386036C10.0968 0.234147 10.2749 0.158203 10.4792 0.158203C10.6835 0.158203 10.8617 0.234147 11.0137 0.386036C11.1656 0.538036 11.2415 0.718314 11.2415 0.92687C11.2415 1.13543 11.1656 1.3157 11.0137 1.4677L4.90105 7.59304C4.74905 7.74493 4.57088 7.82087 4.36655 7.82087C4.16221 7.82087 3.98405 7.74493 3.83205 7.59304L0.97338 4.73437C0.821492 4.58237 0.747658 4.40209 0.75188 4.19354C0.756102 3.98498 0.834158 3.8047 0.986047 3.6527C1.13805 3.50081 1.31832 3.42487 1.52688 3.42487C1.73544 3.42487 1.91571 3.50081 2.06771 3.6527L4.36655 5.96437Z" fill="#0F7439"/>
</svg>
