<svg width="12" height="14" viewBox="0 0 12 14" fill="none" xmlns="http://www.w3.org/2000/svg">
<path d="M3.38101 12.2859H8.61867V10.3337C8.61867 9.61107 8.3629 8.99391 7.85134 8.48224C7.33967 7.97069 6.72251 7.71491 5.99984 7.71491C5.27717 7.71491 4.66001 7.97069 4.14834 8.48224C3.63678 8.99391 3.38101 9.61107 3.38101 10.3337V12.2859ZM1.28934 13.8026C1.07656 13.8026 0.89695 13.7294 0.750506 13.5831C0.604173 13.4366 0.531006 13.257 0.531006 13.0442C0.531006 12.8315 0.604173 12.6519 0.750506 12.5054C0.89695 12.3591 1.07656 12.2859 1.28934 12.2859H1.86434V10.3337C1.86434 9.66663 2.01534 9.03719 2.31734 8.44541C2.61945 7.85352 3.04189 7.37185 3.58467 7.00041C3.04189 6.62896 2.61945 6.1473 2.31734 5.55541C2.01534 4.96363 1.86434 4.33419 1.86434 3.66708V1.71491H1.28934C1.07656 1.71491 0.89695 1.64174 0.750506 1.49541C0.604173 1.34896 0.531006 1.16935 0.531006 0.956576C0.531006 0.743798 0.604173 0.564186 0.750506 0.417742C0.89695 0.271409 1.07656 0.198242 1.28934 0.198242H10.7103C10.9231 0.198242 11.1027 0.271409 11.2492 0.417742C11.3955 0.564186 11.4687 0.743798 11.4687 0.956576C11.4687 1.16935 11.3955 1.34896 11.2492 1.49541C11.1027 1.64174 10.9231 1.71491 10.7103 1.71491H10.1353V3.66708C10.1353 4.33419 9.98501 4.96363 9.68434 5.55541C9.38356 6.1473 8.96045 6.62896 8.415 7.00041C8.96045 7.37185 9.38356 7.85352 9.68434 8.44541C9.98501 9.03719 10.1353 9.66663 10.1353 10.3337V12.2859H10.7103C10.9231 12.2859 11.1027 12.3591 11.2492 12.5054C11.3955 12.6519 11.4687 12.8315 11.4687 13.0442C11.4687 13.257 11.3955 13.4366 11.2492 13.5831C11.1027 13.7294 10.9231 13.8026 10.7103 13.8026H1.28934Z" fill="#D28B30"/>
</svg>
