<svg width="21" height="18" viewBox="0 0 21 18" fill="none" xmlns="http://www.w3.org/2000/svg">
<path fill-rule="evenodd" clip-rule="evenodd" d="M17.1117 12.9517C17.9089 12.3165 18.6524 11.6314 19.3364 10.9017C19.7788 10.4297 20 10.1947 20 9.83569C20 9.47669 19.7788 9.24169 19.3364 8.76969C17.7172 7.04569 14.146 3.83569 10 3.83569C9.04219 3.83569 8.1163 4.00669 7.23717 4.29169L10.1414 6.83869C10.999 6.86966 11.812 7.18226 12.4191 7.71446C13.0261 8.24666 13.3829 8.95957 13.4185 9.71169L17.1117 12.9517ZM7.02737 8.34969C6.65568 8.92107 6.50843 9.58375 6.6083 10.2357C6.70817 10.8877 7.04961 11.4928 7.58006 11.9579C8.11051 12.423 8.80056 12.7223 9.54398 12.8097C10.2874 12.8971 11.043 12.7678 11.6944 12.4417L14.3181 14.7447C13.0057 15.3907 11.5428 15.8357 10 15.8357C5.85405 15.8357 2.28278 12.6257 0.663626 10.9017C0.221209 10.4297 0 10.1947 0 9.83569C0 9.47669 0.221209 9.24169 0.663626 8.76969C1.43101 7.95269 2.63854 6.79969 4.13683 5.81569L7.02737 8.34969Z" fill="#737373"/>
<path d="M2.16406 1.25537L19.3701 15.9507" stroke="#737373" stroke-width="2"/>
</svg>
