<svg width="23" height="20" viewBox="0 0 23 20" fill="none" xmlns="http://www.w3.org/2000/svg">
<path d="M18.5999 18.9L15.0999 15.45C14.5166 15.6333 13.9249 15.7708 13.3249 15.8625C12.7249 15.9541 12.1166 16 11.4999 16C9.26657 16 7.2249 15.4 5.3749 14.2C3.5249 13 2.0749 11.4166 1.0249 9.44998C0.941569 9.29998 0.879069 9.14581 0.837402 8.98748C0.795736 8.82914 0.774902 8.66664 0.774902 8.49998C0.774902 8.33331 0.795736 8.17081 0.837402 8.01248C0.879069 7.85414 0.941569 7.69998 1.0249 7.54998C1.39157 6.89998 1.78324 6.26664 2.1999 5.64998C2.61657 5.03331 3.0999 4.48331 3.6499 3.99998L1.5749 1.89998C1.39157 1.71664 1.2999 1.48748 1.2999 1.21248C1.2999 0.937476 1.3999 0.699976 1.5999 0.499976C1.78324 0.316642 2.01657 0.224976 2.2999 0.224976C2.58324 0.224976 2.81657 0.316642 2.9999 0.499976L19.9999 17.5C20.1832 17.6833 20.2791 17.9125 20.2874 18.1875C20.2957 18.4625 20.1999 18.7 19.9999 18.9C19.8166 19.0833 19.5832 19.175 19.2999 19.175C19.0166 19.175 18.7832 19.0833 18.5999 18.9ZM11.4999 13C11.6832 13 11.8582 12.9916 12.0249 12.975C12.1916 12.9583 12.3582 12.925 12.5249 12.875L7.1249 7.47498C7.0749 7.64164 7.04157 7.80831 7.0249 7.97498C7.00824 8.14164 6.9999 8.31664 6.9999 8.49998C6.9999 9.74998 7.4374 10.8125 8.3124 11.6875C9.1874 12.5625 10.2499 13 11.4999 13ZM11.4999 0.999976C13.7332 0.999976 15.7791 1.60414 17.6374 2.81248C19.4957 4.02081 20.9499 5.60831 21.9999 7.57498C22.0832 7.70831 22.1457 7.85414 22.1874 8.01248C22.2291 8.17081 22.2499 8.33331 22.2499 8.49998C22.2499 8.66664 22.2332 8.82914 22.1999 8.98748C22.1666 9.14581 22.1082 9.29164 22.0249 9.42498C21.7082 10.0416 21.3541 10.625 20.9624 11.175C20.5707 11.725 20.1332 12.2416 19.6499 12.725C19.4166 12.9583 19.1416 13.0666 18.8249 13.05C18.5082 13.0333 18.2332 12.9083 17.9999 12.675L15.9999 10.675C15.8832 10.5583 15.8082 10.4208 15.7749 10.2625C15.7416 10.1041 15.7499 9.94164 15.7999 9.77498C15.8666 9.55831 15.9166 9.34998 15.9499 9.14998C15.9832 8.94998 15.9999 8.73331 15.9999 8.49998C15.9999 7.24998 15.5624 6.18748 14.6874 5.31248C13.8124 4.43748 12.7499 3.99998 11.4999 3.99998C11.2666 3.99998 11.0499 4.01664 10.8499 4.04998C10.6499 4.08331 10.4416 4.13331 10.2249 4.19998C10.0582 4.24998 9.89157 4.25831 9.7249 4.22498C9.55824 4.19164 9.41657 4.11664 9.2999 3.99998L8.4749 3.17498C8.15824 2.85831 8.05407 2.49164 8.1624 2.07498C8.27074 1.65831 8.53324 1.39164 8.9499 1.27498C9.36657 1.19164 9.7874 1.12498 10.2124 1.07498C10.6374 1.02498 11.0666 0.999976 11.4999 0.999976ZM13.4749 6.64998C13.6582 6.86664 13.8124 7.10414 13.9374 7.36248C14.0624 7.62081 14.1416 7.89164 14.1749 8.17498C14.1916 8.30831 14.1416 8.39998 14.0249 8.44998C13.9082 8.49998 13.7999 8.47498 13.6999 8.37498L11.6499 6.32498C11.5499 6.22498 11.5291 6.11664 11.5874 5.99998C11.6457 5.88331 11.7416 5.82498 11.8749 5.82498C12.1916 5.85831 12.4832 5.94581 12.7499 6.08748C13.0166 6.22914 13.2582 6.41664 13.4749 6.64998Z" fill="#7A857E"/>
</svg>
