<svg width="18" height="19" viewBox="0 0 18 19" fill="none" xmlns="http://www.w3.org/2000/svg">
<path d="M12 18.5L6 16.4L1.35 18.2C1.01667 18.3333 0.708333 18.2958 0.425 18.0875C0.141667 17.8792 0 17.6 0 17.25V3.25C0 3.03333 0.0625 2.84167 0.1875 2.675C0.3125 2.50833 0.483333 2.38333 0.7 2.3L6 0.5L12 2.6L16.65 0.8C16.9833 0.666667 17.2917 0.704167 17.575 0.9125C17.8583 1.12083 18 1.4 18 1.75V15.75C18 15.9667 17.9375 16.1583 17.8125 16.325C17.6875 16.4917 17.5167 16.6167 17.3 16.7L12 18.5ZM11 16.05V4.35L7 2.95V14.65L11 16.05ZM13 16.05L16 15.05V3.2L13 4.35V16.05ZM2 15.8L5 14.65V2.95L2 3.95V15.8Z" fill="#5F6368"/>
</svg>
