<svg width="15" height="15" viewBox="0 0 15 15" fill="none" xmlns="http://www.w3.org/2000/svg">
<path d="M7.5 12.5664L3.86456 14.8595C3.70395 14.9666 3.53605 15.0124 3.36085 14.9971C3.18565 14.9818 3.03235 14.9207 2.90094 14.8137C2.76954 14.7067 2.66734 14.5729 2.59434 14.4124C2.52134 14.2519 2.50674 14.0722 2.55054 13.8735L3.51415 9.53946L0.294811 6.62717C0.14881 6.48958 0.0575584 6.33289 0.021058 6.15708C-0.0154425 5.98127 -0.00449236 5.80929 0.0539084 5.64112C0.112309 5.47296 0.19991 5.33537 0.316712 5.22836C0.433513 5.12135 0.594115 5.05255 0.798518 5.02198L5.04717 4.63214L6.68969 0.550353C6.76269 0.366902 6.87584 0.229314 7.02914 0.137588C7.18245 0.0458628 7.3394 0 7.5 0C7.6606 0 7.81755 0.0458628 7.97086 0.137588C8.12416 0.229314 8.23731 0.366902 8.31031 0.550353L9.95283 4.63214L14.2015 5.02198C14.4059 5.05255 14.5665 5.12135 14.6833 5.22836C14.8001 5.33537 14.8877 5.47296 14.9461 5.64112C15.0045 5.80929 15.0154 5.98127 14.9789 6.15708C14.9424 6.33289 14.8512 6.48958 14.7052 6.62717L11.4858 9.53946L12.4495 13.8735C12.4933 14.0722 12.4787 14.2519 12.4057 14.4124C12.3327 14.5729 12.2305 14.7067 12.0991 14.8137C11.9677 14.9207 11.8144 14.9818 11.6392 14.9971C11.4639 15.0124 11.296 14.9666 11.1354 14.8595L7.5 12.5664Z" fill="#FFCC00"/>
</svg>
